# AST/ASF file generated using VICON BodyLanguage
# -----------------------------------------------
:version 1.10
:name VICON
:units
  mass 1.0
  length 0.45
  angle deg
:documentation
   .ast/.asf automatically generated from VICON data using
   VICON BodyBuilder and BodyLanguage model FoxedUp or BRILLIANT.MOD
:root
   order TX TY TZ RX RY RZ
   axis XYZ
   position 0 0 0  
   orientation 0 0 0 
:bonedata
  begin
     id 1 
     name lhipjoint
     direction 0.62366 -0.717238 0.310833 
     length 2.53602 
     axis 0 0 0  XYZ
  end
  begin
     id 2 
     name lfemur
     direction 0.34202 -0.939693 0  
     length 7.40817  
     axis 0 0 20  XYZ
    dof rx ry rz
    limits (-160.0 20.0)
           (-70.0 70.0)
           (-60.0 70.0)
  end
  begin
     id 3 
     name ltibia
     direction 0.34202 -0.939693 0   
     length 7.7045   
     axis 0 0 20   XYZ
    dof rx
    limits (-10.0 170.0)
  end
  begin
     id 4 
     name lfoot
     direction 0.0673888 -0.185149 0.980397   
     length 2.09456   
     axis -90 7.62852e-016 20   XYZ
    dof rx rz
    limits (-45.0 90.0)
           (-70.0 20.0)
  end
  begin
     id 5 
     name ltoes
     direction 1.53575e-011 -4.21994e-011 1   
     length 1.05543   
     axis -90 7.62852e-016 20   XYZ
    dof rx
    limits (-90.0 20.0)
  end
  begin
     id 6 
     name rhipjoint
     direction -0.489018 -0.800347 0.346851   
     length 2.27268  
     axis 0 0 0  XYZ 
  end
  begin
     id 7 
     name rfemur
     direction -0.34202 -0.939693 0   
     length 7.55487   
     axis 0 0 -20   XYZ
    dof rx ry rz
    limits (-160.0 20.0)
           (-70.0 70.0)
           (-70.0 60.0)
  end
  begin
     id 8 
     name rtibia
     direction -0.34202 -0.939693 0   
     length 7.78969   
     axis 0 0 -20   XYZ
    dof rx
    limits (-10.0 170.0)
 end
 begin
     id 9 
     name rfoot
     direction -0.0859318 -0.236096 0.967923   
     length 2.19143  
     axis -90 -7.62852e-016 -20   XYZ
    dof rx rz
    limits (-45.0 90.0)
           (-20.0 70.0)
  end
  begin
     id 10 
     name rtoes
     direction -1.53538e-011 -4.21989e-011 1   
     length 1.09845   
     axis -90 -7.62852e-016 -20   XYZ
    dof rx
    limits (-90.0 20.0)
  end
  begin
     id 11 
     name lowerback
     direction -0.00762546 0.998978 -0.0445553   
     length 1.98161   
     axis 0 0 0   XYZ
    dof rx ry rz
    limits (-20.0 45.0)
           (-30.0 30.0)
           (-30.0 30.0)
  end
  begin
     id 12 
     name upperback
     direction 0.0422361 0.998867 -0.0219156   
     length 1.97558   
     axis 0 0 0   XYZ
    dof rx ry rz
    limits (-20.0 45.0)
           (-30.0 30.0)
           (-30.0 30.0)
  end
  begin
     id 13 
     name thorax
     direction 0.0442465 0.999021 7.47603e-005   
     length 1.97799   
     axis 0 0 0   XYZ
    dof rx ry rz
    limits (-20.0 45.0)
           (-30.0 30.0)
           (-30.0 30.0)
  end
  begin
     id 14 
     name lowerneck
     direction 0.00312169 0.984641 0.174564   
     length 1.78995   
     axis 0 0 0   XYZ
    dof rx ry rz
    limits (-20.0 45.0)
           (-30.0 30.0)
           (-30.0 30.0)
  end
  begin
     id 15 
     name upperneck
     direction -0.0383028 0.985255 -0.166749   
     length 1.83053   
     axis 0 0 0   XYZ
    dof rx ry rz
    limits (-20.0 45.0)
           (-30.0 30.0)
           (-30.0 30.0)
  end
  begin
     id 16
     name head
     direction -0.0129546 0.997059 -0.0755386  
     length 1.84088  
     axis 0 0 0   XYZ
    dof rx ry rz
    limits (-20.0 45.0)
           (-30.0 30.0)
           (-30.0 30.0)
  end
  begin
     id 17 
     name lclavicle
     direction 0.912857 0.370519 -0.171488  
     length 3.51279  
     axis 0 0 0   XYZ
    dof ry rz
    limits (-20.0 10.0)
           (0.0 20.0)
  end
  begin
     id 18 
     name lhumerus
     direction 1 -4.48962e-011 3.64361e-027   
     length 4.95663   
     axis 180 -30 -90   XYZ
    dof rx ry rz
    limits (-60.0 90.0)
           (-90.0 90.0)
           (-90.0 90.0)
  end
  begin
     id 19
     name lradius
     direction 1 -4.48974e-011 5.97202e-027   
     length 3.38177   
     axis 180 -30 -90   XYZ
    dof rx
    limits (-10.0 170.0)
  end
  begin
     id 20
     name lwrist
     direction 1 -4.4896e-011 9.83288e-027   
     length 1.69088   
     axis -9.31221e-015 90 90   XYZ
    dof ry
    limits (-180.0 0.0)
 end
  begin
     id 21 
     name lhand
     direction 1 -4.4902e-011 1.96551e-026   
     length 0.662909   
     axis -1.25475e-014 90 90   XYZ
    dof rx rz
    limits (-90.0 90.0)
           (-45.0 45.0)
  end
  begin
     id 22 
     name lfingers
     direction 1 -4.48971e-011 3.93277e-026   
     length 0.534454   
     axis -2.50945e-014 90 90   XYZ
    dof rx
    limits (0.0 90.0)
  end
  begin
     id 23
     name lthumb
     direction 0.707107 -6.34933e-011 0.707107   
     length 0.767373   
     axis -90 45 -4.80359e-014   XYZ
    dof rx rz
    limits (-45.0 45.0)
           (-45.0 45.0)
  end
  begin
     id 24 
     name rclavicle
     direction -0.900919 0.395364 -0.178976   
     length 3.40627  
     axis 0 0 0   XYZ 
    dof ry rz
    limits (-10.0 20.0)
           (-20.0 0.0)
  end
  begin
     id 25 
     name rhumerus
     direction -1 -4.48969e-011 1.03875e-027  
     length 5.08365   
     axis 180 30 90   XYZ
    dof rx ry rz
    limits (-90.0 60.0)
           (-90.0 90.0)
           (-90.0 90.0)
  end
  begin
     id 26 
     name rradius
     direction -1 -4.48951e-011 5.02733e-027   
     length 3.35984   
     axis 180 30 90   XYZ
    dof rx
    limits (-10.0 170.0)
  end
  begin
     id 27 
     name rwrist
     direction -1 -4.49011e-011 9.82828e-027   
     length 1.67992   
     axis -9.31221e-015 -90 -90   XYZ
    dof ry
    limits (-180.0 0.0)
  end
  begin
     id 28
     name rhand
     direction -1 -4.48894e-011 1.96774e-026   
     length 0.820764   
     axis -1.25475e-014 -90 -90   XYZ
    dof rx rz
    limits (-90.0 90.0)
           (-45.0 45.0)
  end
  begin
     id 29
     name rfingers
     direction -1 -4.49095e-011 3.92833e-026   
     length 0.661721   
     axis -2.50945e-014 -90 -90   XYZ
    dof rx
    limits (0.0 90.0)
  end
  begin
     id 30
     name rthumb
     direction -0.707107 -6.34881e-011 0.707107   
     length 0.950103   
     axis -90 -45 4.80359e-014   XYZ
    dof rx rz
    limits (-45.0 45.0)
           (-45.0 45.0)
  end
:hierarchy
  begin
    root lhipjoint rhipjoint lowerback
    lhipjoint lfemur
    lfemur ltibia
    ltibia lfoot
    lfoot ltoes
    rhipjoint rfemur
    rfemur rtibia
    rtibia rfoot
    rfoot rtoes
    lowerback upperback
    upperback thorax
    thorax lowerneck lclavicle rclavicle
    lowerneck upperneck
    upperneck head
    lclavicle lhumerus
    lhumerus lradius
    lradius lwrist
    lwrist lhand lthumb
    lhand lfingers
    rclavicle rhumerus
    rhumerus rradius
    rradius rwrist
    rwrist rhand rthumb
    rhand rfingers
  end

#!OML:ASF I:\golf\golf\golf 2\Subject 1\2002-09-07\Subject1.ASF
:FULLY-SPECIFIED
:DEGREES
139
root -6.66741 17.8676 0.18097 -123.07 84.8539 -139.854
lowerback 2.5756 1.84864 -1.55059
upperback 4.18174 2.52451 5.01057
thorax 2.58151 1.21023 6.06548
lowerneck -14.2285 -3.29955 1.09411
upperneck 41.3281 -1.70113 -3.25849
head 17.5732 -0.286525 -1.7972
rclavicle -3.1408e-014 -9.54166e-015
rhumerus -6.37729 1.2684 -99.7374
rradius 22.6503
rwrist -41.7237
rhand -14.4044 -6.03657
rfingers 7.12502
rthumb 11.7391 -35.6876
lclavicle -3.1408e-014 -9.54166e-015
lhumerus -13.9016 -52.8978 113.432
lradius 30.4795
lwrist 41.0421
lhand -9.54392 70.5174
lfingers 7.12502
lthumb -163.577 80.1577
rfemur -26.0413 -1.68457 11.0804
rtibia 24.7198
rfoot -5.70519 -14.3754
rtoes -13.0758
lfemur -28.2866 4.42004 -6.71252
ltibia 25.379
lfoot -9.02314 0.622195
ltoes -23.913
140
root -6.66713 17.8679 0.182366 -123.031 84.8231 -139.805
lowerback 2.57899 1.86214 -1.52477
upperback 4.19052 2.54299 5.00964
thorax 2.5876 1.22018 6.04964
lowerneck -14.2487 -3.30577 1.10867
upperneck 41.3359 -1.7289 -3.22661
head 17.5821 -0.290811 -1.79076
rclavicle -2.26615e-014 -1.66979e-014
rhumerus -6.45408 1.53031 -99.7212
rradius 22.8614
rwrist -42.0785
rhand -14.5589 -6.30246
rfingers 7.12502
rthumb 11.5902 -35.962
lclavicle -2.26615e-014 -1.66979e-014
lhumerus -13.9299 -53.0761 113.388
lradius 30.5384
lwrist 41.1011
lhand -9.78945 70.8322
lfingers 7.12502
lthumb -163.814 79.8236
rfemur -26.0261 -1.66864 11.1131
rtibia 24.7171
rfoot -5.67078 -14.3792
rtoes -13.1055
lfemur -28.2765 4.41074 -6.67616
ltibia 25.3682
lfoot -9.0041 0.636262
ltoes -23.762
141
root -6.66756 17.8683 0.181764 -123.278 84.8186 -140.063
lowerback 2.57464 1.87841 -1.49867
upperback 4.18795 2.56471 4.99184
thorax 2.58654 1.23192 6.01566
lowerneck -14.2701 -3.33134 1.10743
upperneck 41.3747 -1.77269 -3.20097
head 17.6088 -0.303033 -1.78781
rclavicle 8.74653e-015 -8.74653e-015
rhumerus -6.50215 1.62445 -99.7426
rradius 23.034
rwrist -42.3255
rhand -14.9551 -6.49938
rfingers 7.12502
rthumb 11.2081 -36.18
lclavicle 8.74653e-015 -8.74653e-015
lhumerus -13.9488 -53.1158 113.392
lradius 30.5142
lwrist 41.0082
lhand -9.98484 71.1411
lfingers 7.12502
lthumb -164.002 79.4995
rfemur -26.0357 -1.69122 11.0965
rtibia 24.7179
rfoot -6.33432 -14.3853
rtoes -9.58621
lfemur -28.29 4.39887 -6.69316
ltibia 25.3549
lfoot -8.98479 0.654608
ltoes -23.2204
142
root -6.66796 17.8685 0.182399 -123.703 84.8083 -140.491
lowerback 2.58202 1.87968 -1.53961
upperback 4.18433 2.56642 5.0083
thorax 2.57623 1.23182 6.05605
lowerneck -14.2566 -3.34029 1.10429
upperneck 41.3951 -1.7704 -3.22224
head 17.6169 -0.303649 -1.79653
rclavicle -4.77083e-015 1.59028e-014
rhumerus -6.50879 1.4717 -99.7708
rradius 23.0563
rwrist -42.161
rhand -15.1713 -6.53231
rfingers 7.12502
rthumb 10.9996 -36.2241
lclavicle -4.77083e-015 1.59028e-014
lhumerus -13.9193 -53.0502 113.397
lradius 30.4641
lwrist 40.9499
lhand -10.0968 71.1618
lfingers 7.12502
lthumb -164.11 79.4702
rfemur -26.0278 -1.67638 11.0643
rtibia 24.72
rfoot -8.24664 -14.3177
rtoes 2.64514
lfemur -28.299 4.36614 -6.70797
ltibia 25.3504
lfoot -9.00398 0.660965
ltoes -23.191
143
root -6.66807 17.8678 0.182973 -124.185 84.7564 -140.965
lowerback 2.60694 1.87652 -1.54081
upperback 4.17665 2.56308 5.02818
thorax 2.55381 1.23076 6.07652
lowerneck -14.2418 -3.33297 1.07967
upperneck 41.3948 -1.76469 -3.18305
head 17.6143 -0.299033 -1.77244
rclavicle -3.02153e-014 5.08889e-014
rhumerus -6.53737 1.41499 -99.7848
rradius 23.1048
rwrist -42.0845
rhand -15.2779 -6.59489
rfingers 7.12502
rthumb 10.8967 -36.2922
lclavicle -3.02153e-014 5.08889e-014
lhumerus -13.9273 -53.1223 113.409
lradius 30.467
lwrist 41.0844
lhand -10.3512 71.3262
lfingers 7.12502
lthumb -164.355 79.2864
rfemur -26.0034 -1.70049 11.0802
rtibia 24.7247
rfoot -10.7589 -13.7851
rtoes 20.9538
lfemur -28.3165 4.36205 -6.70478
ltibia 25.3513
lfoot -9.0199 0.615916
ltoes -24.0693
